<mxfile host="65bd71144e">
    <diagram id="YySNsyIpg19nFWFkePIq" name="Page-1">
        <mxGraphModel dx="843" dy="943" grid="1" gridSize="10" guides="1" tooltips="1" connect="1" arrows="1" fold="1" page="1" pageScale="1" pageWidth="850" pageHeight="1100" math="0" shadow="0">
            <root>
                <mxCell id="0"/>
                <mxCell id="1" parent="0"/>
                <mxCell id="4" style="edgeStyle=orthogonalEdgeStyle;curved=1;html=1;fontSize=30;endArrow=block;endFill=1;endSize=15;entryX=0;entryY=0.5;entryDx=0;entryDy=0;fontColor=#000000;" edge="1" parent="1" target="5">
                    <mxGeometry relative="1" as="geometry">
                        <mxPoint x="-60" y="120" as="targetPoint"/>
                        <mxPoint x="10" y="170" as="sourcePoint"/>
                    </mxGeometry>
                </mxCell>
                <mxCell id="5" value="0" style="ellipse;whiteSpace=wrap;html=1;aspect=fixed;fontSize=30;fontColor=#000000;" vertex="1" parent="1">
                    <mxGeometry x="60" y="130" width="80" height="80" as="geometry"/>
                </mxCell>
                <mxCell id="6" value="1" style="ellipse;whiteSpace=wrap;html=1;aspect=fixed;fontSize=30;fontColor=#000000;" vertex="1" parent="1">
                    <mxGeometry x="230" y="130" width="80" height="80" as="geometry"/>
                </mxCell>
                <mxCell id="12" value="&lt;span style=&quot;font-size: 30px&quot;&gt;ε&lt;/span&gt;" style="edgeStyle=none;html=1;exitX=1;exitY=0.5;exitDx=0;exitDy=0;entryX=0;entryY=0.5;entryDx=0;entryDy=0;endArrow=block;endFill=1;endSize=15;fillColor=#e51400;strokeColor=#B20000;fontColor=#B20000;" edge="1" parent="1" source="7" target="8">
                    <mxGeometry x="-0.1111" y="20" relative="1" as="geometry">
                        <mxPoint as="offset"/>
                    </mxGeometry>
                </mxCell>
                <mxCell id="7" value="0" style="ellipse;whiteSpace=wrap;html=1;aspect=fixed;fontSize=30;strokeColor=#000000;fontColor=#000000;" vertex="1" parent="1">
                    <mxGeometry x="60" y="130" width="80" height="80" as="geometry"/>
                </mxCell>
                <mxCell id="13" value="&lt;span style=&quot;font-size: 30px&quot;&gt;a&lt;/span&gt;" style="edgeStyle=none;html=1;exitX=1;exitY=0;exitDx=0;exitDy=0;entryX=0;entryY=1;entryDx=0;entryDy=0;endArrow=block;endFill=1;endSize=15;fontColor=#000000;" edge="1" parent="1" source="8" target="10">
                    <mxGeometry x="-0.2852" y="20" relative="1" as="geometry">
                        <mxPoint as="offset"/>
                    </mxGeometry>
                </mxCell>
                <mxCell id="14" value="&lt;span style=&quot;font-size: 30px&quot;&gt;ε&lt;/span&gt;" style="edgeStyle=none;html=1;exitX=1;exitY=1;exitDx=0;exitDy=0;entryX=0;entryY=0;entryDx=0;entryDy=0;endArrow=block;endFill=1;endSize=15;fillColor=#e51400;strokeColor=#B20000;fontColor=#000000;" edge="1" parent="1" source="8" target="9">
                    <mxGeometry x="0.2698" y="-22" relative="1" as="geometry">
                        <mxPoint as="offset"/>
                    </mxGeometry>
                </mxCell>
                <mxCell id="17" value="&lt;span style=&quot;font-size: 30px&quot;&gt;ε&lt;/span&gt;" style="edgeStyle=none;html=1;exitX=1;exitY=0.5;exitDx=0;exitDy=0;entryX=0;entryY=1;entryDx=0;entryDy=0;endArrow=block;endFill=1;endSize=15;fillColor=#e51400;strokeColor=#B20000;fontColor=#B20000;" edge="1" parent="1" source="8" target="15">
                    <mxGeometry x="-0.0937" y="-19" relative="1" as="geometry">
                        <mxPoint as="offset"/>
                    </mxGeometry>
                </mxCell>
                <mxCell id="8" value="1" style="ellipse;whiteSpace=wrap;html=1;aspect=fixed;fontSize=30;strokeColor=#000000;fontColor=#000000;" vertex="1" parent="1">
                    <mxGeometry x="230" y="130" width="80" height="80" as="geometry"/>
                </mxCell>
                <mxCell id="9" value="3" style="ellipse;whiteSpace=wrap;html=1;aspect=fixed;fontSize=30;strokeColor=#000000;fontColor=#000000;" vertex="1" parent="1">
                    <mxGeometry x="330" y="230" width="80" height="80" as="geometry"/>
                </mxCell>
                <mxCell id="22" value="&lt;span style=&quot;font-family: helvetica; font-size: 30px; font-style: normal; font-weight: 400; letter-spacing: normal; text-align: center; text-indent: 0px; text-transform: none; word-spacing: 0px; display: inline; float: none;&quot;&gt;b&lt;/span&gt;" style="edgeStyle=none;html=1;exitX=0;exitY=0.5;exitDx=0;exitDy=0;entryX=1;entryY=0.5;entryDx=0;entryDy=0;fontColor=#000000;endArrow=block;endFill=1;endSize=15;labelBackgroundColor=none;" edge="1" parent="1" source="10" target="20">
                    <mxGeometry x="-0.1692" y="-26" relative="1" as="geometry">
                        <mxPoint as="offset"/>
                    </mxGeometry>
                </mxCell>
                <mxCell id="10" value="2" style="ellipse;whiteSpace=wrap;html=1;aspect=fixed;fontSize=30;strokeColor=#000000;fontColor=#000000;" vertex="1" parent="1">
                    <mxGeometry x="330" y="20" width="80" height="80" as="geometry"/>
                </mxCell>
                <mxCell id="11" value="4" style="ellipse;whiteSpace=wrap;html=1;aspect=fixed;fontSize=30;strokeColor=#000000;fontColor=#000000;" vertex="1" parent="1">
                    <mxGeometry x="480" y="230" width="80" height="80" as="geometry"/>
                </mxCell>
                <mxCell id="16" value="&lt;span style=&quot;font-size: 30px&quot;&gt;ε&lt;/span&gt;" style="edgeStyle=none;html=1;exitX=0;exitY=0.5;exitDx=0;exitDy=0;entryX=1;entryY=0.5;entryDx=0;entryDy=0;endArrow=block;endFill=1;endSize=15;fillColor=#e51400;strokeColor=#B20000;fontColor=#B20000;" edge="1" parent="1" source="15" target="10">
                    <mxGeometry x="-0.1429" y="-20" relative="1" as="geometry">
                        <mxPoint as="offset"/>
                    </mxGeometry>
                </mxCell>
                <mxCell id="18" value="&lt;span style=&quot;font-size: 30px&quot;&gt;c&lt;/span&gt;" style="edgeStyle=none;html=1;exitX=0.5;exitY=1;exitDx=0;exitDy=0;entryX=0.5;entryY=0;entryDx=0;entryDy=0;endArrow=block;endFill=1;endSize=15;fontColor=#000000;" edge="1" parent="1" source="15" target="11">
                    <mxGeometry x="0.0769" y="20" relative="1" as="geometry">
                        <mxPoint as="offset"/>
                    </mxGeometry>
                </mxCell>
                <mxCell id="15" value="4" style="ellipse;whiteSpace=wrap;html=1;aspect=fixed;fontSize=30;strokeColor=#000000;fontColor=#000000;" vertex="1" parent="1">
                    <mxGeometry x="480" y="20" width="80" height="80" as="geometry"/>
                </mxCell>
                <mxCell id="19" value="5" style="ellipse;whiteSpace=wrap;html=1;aspect=fixed;fontSize=30;strokeColor=#000000;fontColor=#000000;" vertex="1" parent="1">
                    <mxGeometry x="490" y="240" width="60" height="60" as="geometry"/>
                </mxCell>
                <mxCell id="20" value="2" style="ellipse;whiteSpace=wrap;html=1;aspect=fixed;fontSize=30;strokeColor=#000000;fontColor=#000000;" vertex="1" parent="1">
                    <mxGeometry x="170" y="10" width="80" height="80" as="geometry"/>
                </mxCell>
                <mxCell id="21" value="6" style="ellipse;whiteSpace=wrap;html=1;aspect=fixed;fontSize=30;strokeColor=#000000;fontColor=#000000;" vertex="1" parent="1">
                    <mxGeometry x="180" y="20" width="60" height="60" as="geometry"/>
                </mxCell>
                <mxCell id="23" value="&lt;span style=&quot;font-size: 30px&quot;&gt;ε&lt;/span&gt;" style="edgeStyle=none;html=1;exitX=1;exitY=1;exitDx=0;exitDy=0;entryX=0;entryY=0;entryDx=0;entryDy=0;endArrow=block;endFill=1;endSize=15;fillColor=#e51400;strokeColor=#B20000;fontColor=#B20000;" edge="1" parent="1">
                    <mxGeometry x="0.2698" y="-22" relative="1" as="geometry">
                        <mxPoint x="298.284271247462" y="196.56427124746202" as="sourcePoint"/>
                        <mxPoint x="341.7157287525381" y="239.9957287525381" as="targetPoint"/>
                        <mxPoint as="offset"/>
                    </mxGeometry>
                </mxCell>
            </root>
        </mxGraphModel>
    </diagram>
</mxfile>